# xmcd
#
# Track frame offsets:
#	150
#	12740
#	25152
#	35425
#	46162
#	64565
#	78022
#	91525
#	105240
#	119907
#	131277
#	147627
#	161310
#	175732
#	191042
#	209110
#	225350
#	238700
#	252335
#	266610
#
# Disc length: 3963 seconds
#
# Revision: 0
# Processed by: cddbd v1.5.2PL0 Copyright (c) Steve Scherf et al.
# Submitted via: audiograbber 1.83.01
#
DISCID=080f7914
DTITLE=Smokey Robinson and The Miracles - Anthology [Disc 2]
DYEAR=1986
DGENRE=R&B
TTITLE0=I Second That Emotion
TTITLE1=If You Can Want
TTITLE2=Yester-Love
TTITLE3=Special Occasion
TTITLE4=Baby Baby Don't Cry
TTITLE5=Doggone Right
TTITLE6=Here I Go Again
TTITLE7=Abraham, Martin and John
TTITLE8=Darling Dear
TTITLE9=Point It Out
TTITLE10=Who's Gonna Take The Blame
TTITLE11=The Tears Of A Clown
TTITLE12=I Don't Blame You At All
TTITLE13=Satisfaction
TTITLE14=We've Come Too Far To End It Now
TTITLE15=I Can't Stand To See You Cry
TTITLE16=Crazy 'bout The La La La
TTITLE17=Do It Baby
TTITLE18=Don't Cha Love It
TTITLE19=Love Machine
EXTD=
EXTT0=
EXTT1=
EXTT2=
EXTT3=
EXTT4=
EXTT5=
EXTT6=
EXTT7=
EXTT8=
EXTT9=
EXTT10=
EXTT11=
EXTT12=
EXTT13=
EXTT14=
EXTT15=
EXTT16=
EXTT17=
EXTT18=
EXTT19=
PLAYORDER=
